Patient4_TMGait_0pt2_01_left_11_EMG.mot
version=1
nRows=23
nColumns=33
inDegrees=no
endheader
time	1LAddLong	2LGlutMax	3LGlutMed	4LIliopsoas	5LSemiMemb	6LBicFemLong	7LRecFem	8LVastMed	9LVastLat	10LGasMed	11LTibAnt	12lTibPost	13LPeroneusLong	14LSol	15LExtDigLong	16LFlexDigLong	17RAddLong	18RGlutMax	19RGlutMed	20RIliopsoas	21RSemiMemb	22RBicFemLong	23RRecFem	24RVastMed	25RVastLat	26RGasMed	27RTibAnt	28RTibPost	29RPeroneusLong	30RSol	31RExtDigLong	32RFlexDigLong
27.098	0.001068	-0.029297	-0.046082	0.024567	0.002441	-0.011444	0.031281	0.000153	-0.005493	0.050659	0.081635	0.00412	-0.051117	-0.078125	0.15671	0.002899	0.035248	-0.11337	-1.0289	-0.047455	-0.016479	0.15656	-0.27725	-0.37918	-0.044403	-0.00412	0.041809	-0.026093	0.26474	0.012512	0.000916	-0.007629
27.099	0.001373	-0.047607	0.027161	0.010376	0.002441	-0.011139	0.062714	-0.005341	-0.005493	0.07843	0.11978	0.00473	-0.10254	-0.06546	0.13275	0.00351	0.055084	-0.15793	-0.71945	-0.0354	0.10574	0.2034	-0.18417	-0.46875	0.11627	-0.027771	0.045624	-0.029297	0.13992	0.14786	0.001984	-0.011749
27.1	0.007477	-0.055695	0.067291	0.002594	0.003052	-0.007019	0.053406	-0.006866	-0.001831	0.042877	-0.055542	0.010529	-0.055695	0.022888	0.71182	0.002289	0.072937	-0.10727	-0.55862	-0.11353	0.14267	-0.026245	-0.067291	-0.6955	0.1329	-0.023041	0.13504	-0.031586	-0.071259	0.11658	0.004272	-0.014801
27.101	0.014954	-0.07431	0.07309	-0.014648	-0.000458	-0.019989	0.018921	-0.004425	0.010071	0.041046	-0.18143	0.005035	-0.005341	0.004883	0.56671	0.002594	0.055084	-0.081482	-0.34683	-0.16541	-0.004425	-0.67352	0.15213	-0.43869	0.086365	-0.006714	0.21378	-0.03067	0.18478	0.022278	0	-0.007172
27.102	0.003052	-0.043945	0.13763	-0.006561	-0.001373	-0.024872	0.02594	-0.001221	0.018921	0.034943	-0.16312	0.010834	-0.013428	-0.013428	0.091095	0.006104	0.063934	-0.051727	-0.38681	-0.003967	-0.2327	-0.85144	0.34805	-0.27863	0.053864	-0.004272	0.12695	-0.034332	-0.15259	0.062561	0.000305	-0.010071
27.103	0.003815	-0.037537	0.11475	0.029602	-0.007629	-0.007324	0.024261	0.000458	0.026245	0.038452	0.023346	0.005493	0.032196	-0.042572	-0.014343	0.003967	0.10086	-0.065613	-0.62271	0.28748	-0.094147	-0.76752	0.32074	-0.45181	-0.054016	-0.081787	0.028229	-0.034943	-1.3033	0.15289	-0.001068	-0.010986
27.104	-0.002289	-0.059052	0.10117	0.021362	-0.007019	-0.011139	0.02655	0.001221	0.030823	0.095825	0.14786	0.005341	-0.061646	-0.095825	0.032501	-0.007935	0.086975	-0.10239	-0.12955	0.24918	-0.16159	-0.57724	0.38361	-0.27817	-0.18097	-0.20157	0.07431	-0.037537	-1.1148	0.12817	0.003052	-0.003357
27.105	-0.007477	-0.072327	0.12054	0.015259	0.002747	-0.029602	0.03006	-0.00885	0.027924	0.10193	0.26718	0.011292	-0.082397	-0.08255	0.057526	-0.01236	0.10834	-0.11978	1.1157	0.067139	-0.34363	-0.6366	0.44205	-0.47531	0.36621	-0.26047	0.054169	-0.041962	-1.5878	0.17609	0.001068	-0.00351
27.106	0.011444	-0.09552	0.099792	0.014648	0.010376	-0.014801	0.048828	0.002289	0.028229	0.11368	0.1413	0.006714	-0.11078	0.007172	0.62729	-0.011749	0.028076	-0.17822	0.49103	-0.01709	-0.4158	-0.26337	0.36026	-0.14816	0.56397	-0.24277	0.054169	-0.053711	-0.58426	0.061646	0.000305	0.001373
27.107	0.016632	-0.093994	0.041046	0.035248	0.016785	-0.014801	0.044098	-0.005341	0.02594	0.10559	0.10742	0.004883	-0.11749	0.13062	0.048828	-0.00946	-0.05661	-0.16647	-0.87158	0.089874	-0.17532	-0.013123	0.22492	0.75623	0.36072	-0.11826	0.024109	-0.029449	1.0701	-0.12482	0.000305	-0.010376
27.108	0.012512	-0.097656	0.024567	0.043793	-0.002136	-0.039978	0.055237	0.004578	0.026245	0.091705	0.14862	0.011749	-0.1152	0.19058	0.079041	-0.017242	-0.11383	-0.076447	-0.867	0.16678	0.41992	0.062714	0.16281	1.2512	0.022583	0.11749	-0.009613	0.077667	0.28336	-0.25742	0.00061	-0.023346
27.109	-0.006256	-0.055695	0.028381	0.024567	-0.007019	-0.077057	0.14679	0.000153	0.019531	0.025482	0.083618	0.010529	-0.036621	0.17761	0.24414	-0.004578	-0.10925	-0.022125	-0.41824	0.2739	0.44525	0.12207	0.15152	1.2259	-0.23666	0.20569	-0.052948	-0.018005	0.7486	-0.24811	0.002747	-0.014801
27.11	-0.009003	-0.066833	0.023193	0.001678	-0.012665	-0.076294	0.26199	-0.001526	0.011444	0.009918	0.12024	0.009003	0.060425	0.06073	-0.093994	0.006714	-0.071106	-0.01358	0.051575	0.22034	0.18417	0.215	0.56686	2.144	-0.034027	0.11841	-0.12009	-0.33951	1.4244	-0.29358	-0.001373	-0.014648
27.111	0.014954	-0.06134	0.019531	0.000305	-0.01358	-0.061188	0.26566	0.004272	0.010529	0.009003	0.091095	0.004425	0.089111	0.003662	-0.018463	-0.010223	0.002747	0.059814	1.4163	-0.12131	0.040741	0.27588	0.69855	1.6066	0.10223	0.062408	-0.11139	-0.025787	-0.39291	-0.27313	-0.008698	0.000153
27.112	0.010986	-0.070496	0.022125	0.019989	-0.002594	-0.031891	0.22339	-0.002594	-0.002594	0.004883	-0.24216	0.011902	0.19104	-0.027313	-0.26321	-0.012665	0.017395	0.045929	0.9375	-0.14587	-0.007935	0.31174	0.55222	-0.1329	-0.056305	0.026245	-0.088043	0.25604	-1.5997	-0.18845	0.000763	-0.003357
27.113	0.006256	-0.041199	0.023346	0.018158	0.002899	-0.008545	0.13534	0.00351	-0.005646	0.026398	-0.00885	0.003662	0.11124	-0.070801	-0.67978	-0.026703	0.021973	-0.003204	-0.67322	-0.16541	-0.00473	0.1532	0.45059	-1.0024	-0.46738	-0.018311	-0.010376	0.14755	0.35217	0.090942	0.005035	-0.014496
27.114	0.023956	-0.01709	0.020447	0.020447	-0.001984	-0.013275	0.055084	0.002136	-0.009003	0.071411	0.20538	0.006866	-0.04425	-0.032959	-0.62286	-0.019684	-0.008545	-0.027313	-1.0777	-0.22324	-0.000153	-0.014038	0.11078	-0.99808	-0.27268	0.058746	-0.007629	-0.032806	-0.019531	-0.06012	0.004425	-0.015564
27.115	-0.006104	-0.054779	0.014801	0.019684	0.000153	0.007477	-0.000153	0.001984	0.005035	0.033417	0.1709	0.00885	-0.080566	-0.045471	-0.30731	-0.007629	-0.002899	0.000305	-0.18784	-0.22003	-0.00885	-0.11902	-0.21149	-0.65811	-0.17838	0.06897	-0.1152	-0.014954	-0.08667	-0.054932	0.00412	-0.018005
27.116	0.049133	-0.027161	0.00351	0.024567	0.007935	0.027313	-0.054932	0.005646	-0.002441	0.016937	-0.04837	0.010223	-0.091858	-0.1181	0.02594	-0.00351	-0.012207	0.039825	-0.022888	-0.050659	0.015106	-0.11856	-0.70023	-0.56366	-0.14328	0.030212	0.014038	-0.060883	-0.5481	-0.003967	0.001221	-0.019073
27.117	-0.018005	-0.066986	0.010071	0.027618	0.007629	0.023651	-0.11383	0.00061	0.00412	0.027924	-0.32257	0.010071	-0.087585	-0.12817	1.067	-0.018921	-0.008698	-0.008698	-0.69931	0.13886	0.009308	-0.15808	-0.67337	-0.28458	-0.2388	0.023193	-0.031586	-0.2446	0.85022	0.071106	0.000153	-0.014801
27.118	0.039063	-0.022583	0.014954	0.023041	0.006714	0.005188	-0.13596	0.005188	0.014038	0.016937	-0.075378	0.010681	-0.11215	-0.072937	-0.042114	-0.004883	-0.002899	-0.011292	-0.69946	0.38162	-0.00351	-0.28976	-0.54138	0.12039	-0.40009	0.018463	-0.035858	0.20065	0.10239	0.36529	0.002136	-0.016479
27.119	0.023499	-0.056	-0.000458	0.025787	-0.020142	-0.02594	-0.16098	0.004578	0.018463	-0.00885	0.044861	0.010834	-0.070801	-0.080566	0.45029	-0.009766	-0.003357	0.032654	-0.68192	0.31143	-0.002289	-0.27405	-0.48691	0.62546	-0.47134	0.026703	-0.13367	0.14877	0.27451	0.49179	-0.002136	-0.006409
27.12	0.013275	-0.050964	-0.022278	0.020142	-0.020142	-0.04837	-0.098419	-0.005493	0.016479	-0.011292	0.072327	0.012054	-0.050354	-0.19562	0.032806	-0.016785	-0.003052	-0.009918	-0.04837	0.086823	-0.005493	-0.24719	-0.3981	0.22278	-0.23544	0.032043	-0.086823	0.047455	-0.16541	0.35919	-0.003357	-0.005493
